<svg width="72" height="12" viewBox="0 0 72 12" fill="none" xmlns="http://www.w3.org/2000/svg">
<path d="M10.812 6.148V11.104H1.188V6.148H10.812ZM1.272 0.256H2.808L2.64 0.676H5.748V1.972H4.056V2.536H6V3.856H4.212C4.468 4.048 4.74 4.204 5.028 4.324C5.316 4.444 5.64 4.548 6 4.636V6.052C5.4 5.932 4.888 5.776 4.464 5.584C4.048 5.384 3.66 5.092 3.3 4.708C2.932 5.092 2.54 5.384 2.124 5.584C1.716 5.776 1.208 5.932 0.6 6.052V4.636C0.96 4.548 1.284 4.444 1.572 4.324C1.86 4.204 2.132 4.048 2.388 3.856H0.6V2.536H2.52V1.972H0.588L1.272 0.256ZM9.252 9.796V9.208H2.748V9.796H9.252ZM9.252 8.044V7.456H2.748V8.044H9.252ZM6.504 0.615999H11.1V5.656H6.504V0.615999ZM9.6 4.156V2.116H8.004V4.156H9.6ZM23.52 9.64V11.08H17.64C16.912 11.08 16.3 11.036 15.804 10.948C15.316 10.868 14.876 10.728 14.484 10.528C14.388 10.88 14.324 11.104 14.292 11.2H12.624C13 10.152 13.276 9.18 13.452 8.284C13.628 7.388 13.736 6.42 13.776 5.38H12.36V3.82H15.348C15.348 4.868 15.312 5.804 15.24 6.628C15.168 7.444 15.04 8.264 14.856 9.088C15.216 9.288 15.612 9.432 16.044 9.52C16.484 9.6 17.016 9.64 17.64 9.64H23.52ZM14.472 0.4L15.3 3.004H13.68L12.852 0.4H14.472ZM15.648 3.784H18.756V2.608H17.484C17.396 2.92 17.3 3.216 17.196 3.496H15.66C16.092 2.448 16.352 1.416 16.44 0.4H17.844C17.812 0.799999 17.78 1.096 17.748 1.288H18.756V0.279999H20.304V1.288H22.884V2.608H20.304V3.784H23.4V5.104H15.648V3.784ZM16.212 5.56H22.56V9.184H16.212V5.56ZM21.036 7.912V6.832H17.736V7.912H21.036ZM55.404 3.28V9.04H49.596V3.28H55.404ZM48.504 0.7H59.496V2.248H58.476V11.224H55.14V9.676H56.928V2.248H48.504V0.7ZM53.868 7.504V4.828H51.132V7.504H53.868ZM60.84 4.696H66.072V11.2H64.56V10.072H62.352V11.2H60.84V4.696ZM60.6 2.68H61.164L62.46 0.352H64.272L62.976 2.68H64.524L64.128 1.312H65.652L66.456 4.12H60.6V2.68ZM64.56 8.788V8.092H62.352V8.788H64.56ZM64.56 6.808V6.076H62.352V6.808H64.56ZM66.864 5.8H68.412V7.216C69.34 6.952 70.296 6.576 71.28 6.088V7.672C70.384 8.128 69.428 8.476 68.412 8.716V9.556H71.4V11.104H66.864V5.8ZM66.864 0.4H68.412V1.864C69.316 1.616 70.272 1.256 71.28 0.784V2.32C70.4 2.768 69.444 3.108 68.412 3.34V3.964H71.4V5.476H66.864V0.4Z" fill="black"/>
<path d="M24.6 9.532C26.336 8.82 27.592 7.656 28.368 6.04H24.6V4.492H28.896C29.064 3.82 29.16 3.092 29.184 2.308H25.104V0.76H34.896V2.308H30.768C30.744 3.052 30.664 3.78 30.528 4.492H35.4V6.04H32.04V9.532H35.52V11.08H30.48V6.04H30.084C29.18 8.448 27.352 10.224 24.6 11.368V9.532ZM36.828 0.52H40.824C40.824 1.392 40.768 2.188 40.656 2.908C40.544 3.62 40.36 4.344 40.104 5.08C40.528 5.88 40.74 6.7 40.74 7.54C40.74 8.356 40.54 9.152 40.14 9.928H38.532C38.796 9.52 38.988 9.124 39.108 8.74C39.236 8.348 39.3 7.948 39.3 7.54C39.3 7.132 39.236 6.736 39.108 6.352C38.988 5.96 38.796 5.556 38.532 5.14C38.908 4.1 39.152 3.072 39.264 2.056H38.34V11.2H36.828V0.52ZM41.064 0.472H47.016V6.256H44.676C44.812 7.048 45.096 7.712 45.528 8.248L46.272 6.568H47.652L46.8 8.488H45.744C46.208 8.984 46.812 9.36 47.556 9.616V11.32C46.236 10.904 45.212 10.244 44.484 9.34C43.756 8.436 43.316 7.408 43.164 6.256H42.588V9.664H43.704V11.2H41.064V0.472ZM45.48 4.792V4.072H42.588V4.792H45.48ZM45.48 2.656V1.936H42.588V2.656H45.48Z" fill="url(#paint0_linear_1332_36)"/>
<defs>
<linearGradient id="paint0_linear_1332_36" x1="36" y1="-2.26831e-08" x2="36" y2="11" gradientUnits="userSpaceOnUse">
<stop stop-color="#1D4ED8"/>
<stop offset="0.304" stop-color="#2563EB"/>
<stop offset="0.634" stop-color="#60A5FA"/>
<stop offset="1" stop-color="#93C5FD"/>
</linearGradient>
</defs>
</svg>
