<?xml version="1.0" encoding="UTF-8" ?>
<!DOCTYPE svg PUBLIC "-//W3C//DTD SVG 1.1//EN" "http://www.w3.org/Graphics/SVG/1.1/DTD/svg11.dtd">
<svg width="640pt" height="640pt" viewBox="0 0 640 640" version="1.1" xmlns="http://www.w3.org/2000/svg">
<g id="#ffffffff">
</g>
<g id="#022550ff">
<path fill="#022550" opacity="1.00" d=" M 278.98 15.30 C 284.68 14.53 290.46 14.61 296.11 13.49 C 309.76 13.29 323.41 13.46 337.06 13.39 C 340.43 13.28 343.64 14.62 347.02 14.47 C 356.11 14.94 365.16 16.29 374.03 18.35 C 374.93 18.21 375.82 18.03 376.71 17.79 C 377.72 18.30 378.73 18.82 379.80 19.23 C 437.81 31.40 492.52 60.48 533.85 103.13 C 538.09 107.61 543.06 111.57 545.99 117.12 C 537.21 115.45 530.21 109.60 522.46 105.59 C 512.26 99.75 502.25 93.60 491.92 88.02 C 474.76 77.35 456.98 67.74 439.62 57.42 C 430.82 52.63 422.01 47.84 413.56 42.46 C 402.74 35.93 391.42 30.21 381.02 23.00 C 378.46 20.94 375.07 21.42 372.07 21.85 C 355.50 24.43 338.75 25.55 322.19 28.21 C 309.10 29.67 296.13 32.08 282.99 33.09 C 256.77 36.60 230.50 39.80 204.29 43.39 C 199.04 44.16 193.69 44.29 188.51 45.47 C 184.62 46.37 181.91 49.53 179.15 52.18 C 174.88 56.58 170.07 60.41 165.68 64.69 C 154.52 75.87 142.77 86.43 131.61 97.61 C 120.61 108.96 108.45 119.09 97.20 130.18 C 85.95 140.59 75.22 151.55 63.80 161.79 C 59.43 166.43 53.17 169.90 51.30 176.39 C 49.30 182.98 48.24 189.81 46.35 196.43 C 42.25 210.64 39.60 225.22 35.48 239.42 C 28.99 265.58 22.76 291.81 15.87 317.87 C 14.85 321.41 15.15 325.18 16.45 328.61 C 23.98 350.37 30.37 372.51 37.65 394.35 C 41.51 408.74 46.75 422.71 50.95 437.01 C 54.61 448.68 58.73 460.21 62.04 472.00 C 63.79 478.78 68.34 485.61 65.88 492.79 C 64.48 490.06 62.84 487.47 61.04 484.98 C 33.64 442.67 16.74 393.51 12.83 343.25 C 11.18 336.59 13.17 329.66 11.75 322.99 C 13.01 314.18 11.52 305.22 12.44 296.37 C 13.54 292.28 13.15 287.98 14.17 283.87 C 15.28 278.93 14.94 273.82 16.01 268.88 C 20.40 243.08 27.98 217.79 38.84 193.97 C 41.74 186.44 46.56 179.79 49.09 172.12 C 49.90 170.34 51.37 169.00 52.48 167.42 C 61.34 150.94 72.47 135.76 84.47 121.44 C 89.97 114.31 97.14 108.75 103.09 102.03 C 105.40 99.67 108.17 97.78 110.22 95.16 C 113.97 90.60 118.66 86.99 123.08 83.12 C 131.25 76.96 138.99 70.19 147.71 64.81 C 159.37 56.38 172.38 50.10 184.90 43.12 C 193.16 39.83 201.16 35.92 209.48 32.78 C 231.89 24.37 255.24 18.38 278.98 15.30 Z" />
<path fill="#022550" opacity="1.00" d=" M 286.12 86.90 C 288.34 84.10 291.77 82.65 295.22 84.09 C 302.00 89.05 309.33 93.18 316.52 97.50 C 328.39 104.96 340.44 112.15 352.23 119.74 C 354.11 120.77 356.27 122.13 358.49 121.30 C 362.89 119.82 366.68 117.01 370.79 114.90 C 386.93 106.40 403.31 98.35 419.59 90.13 C 420.95 89.50 422.34 88.90 423.72 88.31 C 424.26 89.38 424.81 90.46 425.35 91.54 C 438.03 116.91 450.73 142.26 463.40 167.63 C 466.67 174.71 470.91 181.40 473.21 188.89 C 472.94 189.64 472.39 191.15 472.11 191.90 C 465.56 186.42 460.81 179.13 454.07 173.85 C 438.41 159.37 420.39 147.34 400.74 139.01 C 396.68 136.31 391.79 135.56 387.37 133.65 C 382.98 131.75 378.23 130.93 373.81 129.11 C 366.99 126.57 359.44 127.26 352.69 124.51 C 336.15 123.66 319.55 124.50 302.99 124.16 C 298.50 124.46 293.70 123.50 289.51 125.54 C 284.05 127.11 278.21 126.93 272.77 128.68 C 266.12 131.04 259.32 132.92 252.76 135.54 C 248.93 136.33 245.83 138.82 242.18 140.02 C 238.44 140.90 236.28 144.80 232.26 144.90 C 221.81 150.09 212.02 156.60 202.97 163.96 C 196.60 168.11 191.45 173.76 185.91 178.91 C 174.55 190.47 164.21 203.14 156.12 217.23 C 153.21 222.39 149.46 227.13 147.56 232.80 C 136.56 256.23 129.35 281.92 129.81 308.00 C 129.98 319.52 129.29 331.08 130.61 342.56 C 131.66 348.40 131.96 354.39 133.68 360.11 C 135.41 366.11 136.20 372.38 138.78 378.13 C 140.20 383.98 143.33 389.17 145.09 394.90 C 147.35 399.08 148.58 403.77 151.31 407.69 C 154.27 412.39 157.13 417.19 159.72 422.09 C 159.59 422.73 159.34 424.01 159.21 424.65 C 143.67 419.56 128.56 413.21 113.17 407.66 C 104.70 404.67 96.34 401.38 87.91 398.27 C 86.53 397.69 85.17 397.08 83.80 396.49 C 84.60 393.12 85.53 389.75 87.22 386.72 C 94.86 373.52 102.18 360.13 109.94 346.99 C 115.00 337.22 121.18 328.06 125.69 318.00 C 112.15 302.00 97.42 287.06 83.38 271.50 C 81.78 269.57 80.18 267.54 79.36 265.14 C 80.03 264.08 80.87 263.16 81.75 262.28 C 98.34 252.14 114.83 241.84 130.98 231.00 C 136.56 227.16 143.01 224.63 148.17 220.19 C 151.16 217.79 151.29 213.70 151.63 210.21 C 153.30 187.29 155.68 164.43 157.23 141.50 C 158.93 140.12 160.62 138.73 162.30 137.33 C 180.53 138.16 198.75 139.40 217.00 139.85 C 222.13 140.05 227.27 140.76 232.41 140.46 C 235.54 140.34 237.57 137.59 239.61 135.57 C 248.85 125.17 259.07 115.71 268.35 105.34 C 274.28 99.20 280.34 93.18 286.12 86.90 Z" />
<path fill="#022550" opacity="1.00" d=" M 149.47 449.77 C 155.88 449.15 162.43 449.16 168.74 450.58 C 176.08 451.95 182.73 455.45 189.33 458.77 C 193.15 461.46 196.80 464.49 199.89 468.01 C 202.65 472.26 205.75 476.32 208.09 480.84 C 213.40 491.53 215.75 503.94 213.37 515.74 C 210.19 534.72 196.49 551.37 178.76 558.67 C 164.48 564.66 147.91 564.49 133.77 558.16 C 125.03 555.75 118.56 548.91 112.53 542.51 C 108.24 536.24 104.01 529.72 101.93 522.33 C 98.47 510.58 98.71 497.60 103.33 486.20 C 110.57 466.86 128.98 452.33 149.47 449.77 M 148.40 481.43 C 138.48 484.75 130.99 494.43 130.74 504.97 C 130.26 512.23 133.02 519.64 138.36 524.63 C 148.64 535.34 168.40 534.27 177.24 522.25 C 182.43 515.92 183.86 507.16 181.87 499.33 C 180.15 492.10 174.70 486.22 168.29 482.74 C 162.19 479.73 154.86 479.61 148.40 481.43 Z" />
</g>
<g id="#1a5088ff">
<path fill="#1a5088" opacity="1.00" d=" M 372.07 21.85 C 375.07 21.42 378.46 20.94 381.02 23.00 C 391.42 30.21 402.74 35.93 413.56 42.46 C 422.01 47.84 430.82 52.63 439.62 57.42 C 456.98 67.74 474.76 77.35 491.92 88.02 C 502.25 93.60 512.26 99.75 522.46 105.59 C 530.21 109.60 537.21 115.45 545.99 117.12 C 545.38 117.72 544.17 118.94 543.56 119.55 C 522.73 114.52 502.02 108.98 481.20 103.89 C 466.06 99.92 450.79 96.48 435.73 92.21 C 432.36 91.19 428.82 91.07 425.35 91.54 C 424.81 90.46 424.26 89.38 423.72 88.31 C 422.34 88.90 420.95 89.50 419.59 90.13 C 418.17 84.59 415.60 79.39 411.94 74.98 C 407.32 69.36 404.26 62.72 400.42 56.59 C 395.48 48.53 390.53 40.48 385.60 32.43 C 383.58 29.70 381.00 26.01 377.16 26.45 C 373.63 27.36 370.91 29.98 367.97 31.98 C 361.79 36.67 354.53 39.69 348.42 44.48 C 343.55 48.28 338.90 52.40 333.51 55.47 C 328.06 58.57 322.83 62.04 317.91 65.93 C 310.31 71.94 300.83 75.84 295.22 84.09 C 291.77 82.65 288.34 84.10 286.12 86.90 C 285.93 85.39 285.76 83.89 285.58 82.38 C 277.84 77.52 268.50 77.15 260.13 73.93 C 249.07 69.86 237.73 66.61 226.35 63.55 C 219.83 61.53 213.58 58.69 206.92 57.11 C 200.68 55.64 194.82 51.96 188.25 52.36 C 185.75 52.41 185.14 55.40 184.28 57.24 C 181.36 67.17 178.59 77.16 176.07 87.21 C 172.73 96.71 169.59 106.29 167.25 116.10 C 165.68 123.20 162.74 130.00 162.30 137.33 C 160.62 138.73 158.93 140.12 157.23 141.50 C 146.57 141.97 136.92 146.88 126.90 149.98 C 119.56 152.22 112.49 155.30 105.01 157.08 C 97.05 158.89 89.97 163.26 82.01 165.06 C 75.63 166.57 69.84 169.76 63.59 171.65 C 60.75 172.65 57.60 173.30 55.34 175.42 C 55.06 181.17 57.61 186.53 59.02 192.00 C 61.23 200.30 64.37 208.32 66.43 216.66 C 68.56 225.57 72.41 233.98 74.16 243.00 C 75.49 249.83 77.87 256.46 81.75 262.28 C 80.87 263.16 80.03 264.08 79.36 265.14 C 80.18 267.54 81.78 269.57 83.38 271.50 C 81.72 270.75 80.01 270.01 78.18 269.80 C 76.53 270.94 75.16 272.41 73.75 273.83 C 68.73 279.19 62.19 282.86 57.41 288.48 C 48.57 296.90 41.30 306.91 31.67 314.51 C 28.18 317.38 24.26 320.04 22.08 324.13 C 20.84 325.94 22.60 327.83 23.67 329.21 C 27.78 333.82 32.89 337.36 37.31 341.66 C 45.62 349.05 51.92 358.40 60.50 365.50 C 67.45 371.24 72.78 378.62 79.52 384.57 C 81.54 386.64 84.54 386.61 87.22 386.72 C 85.53 389.75 84.60 393.12 83.80 396.49 C 85.17 397.08 86.53 397.69 87.91 398.27 C 87.25 398.13 85.93 397.85 85.27 397.71 C 80.66 423.48 76.70 449.37 72.12 475.15 C 71.16 480.33 70.64 485.58 69.97 490.81 C 69.09 492.29 67.12 492.59 65.73 493.47 L 65.88 492.79 C 68.34 485.61 63.79 478.78 62.04 472.00 C 58.73 460.21 54.61 448.68 50.95 437.01 C 46.75 422.71 41.51 408.74 37.65 394.35 C 30.37 372.51 23.98 350.37 16.45 328.61 C 15.15 325.18 14.85 321.41 15.87 317.87 C 22.76 291.81 28.99 265.58 35.48 239.42 C 39.60 225.22 42.25 210.64 46.35 196.43 C 48.24 189.81 49.30 182.98 51.30 176.39 C 53.17 169.90 59.43 166.43 63.80 161.79 C 75.22 151.55 85.95 140.59 97.20 130.18 C 108.45 119.09 120.61 108.96 131.61 97.61 C 142.77 86.43 154.52 75.87 165.68 64.69 C 170.07 60.41 174.88 56.58 179.15 52.18 C 181.91 49.53 184.62 46.37 188.51 45.47 C 193.69 44.29 199.04 44.16 204.29 43.39 C 230.50 39.80 256.77 36.60 282.99 33.09 C 296.13 32.08 309.10 29.67 322.19 28.21 C 338.75 25.55 355.50 24.43 372.07 21.85 Z" />
<path fill="#1a5088" opacity="1.00" d=" M 386.71 496.74 C 392.57 494.86 398.05 491.99 403.93 490.17 C 410.02 502.43 415.18 515.10 420.17 527.85 C 423.11 534.56 426.06 541.33 428.71 548.11 C 428.76 548.62 428.87 549.64 428.92 550.15 C 424.99 544.38 422.75 537.71 419.65 531.50 C 414.13 520.28 410.96 508.03 404.85 497.09 C 403.85 495.41 402.34 493.23 400.06 493.90 C 396.07 494.86 392.50 496.97 388.64 498.32 C 385.94 499.50 382.37 500.14 381.22 503.25 C 378.59 509.43 376.71 515.91 374.24 522.16 C 371.73 528.54 371.12 536.14 365.71 540.96 C 369.93 527.72 375.24 514.85 379.74 501.70 C 380.43 498.45 384.15 497.90 386.71 496.74 Z" />
<path fill="#1a5088" opacity="1.00" d=" M 234.30 501.63 C 241.29 499.01 248.89 499.26 256.12 500.64 C 268.26 501.68 279.09 507.53 289.91 512.62 C 288.58 520.70 287.20 528.79 285.49 536.80 C 276.66 530.43 266.23 524.51 254.95 525.57 C 251.09 525.81 247.24 528.82 247.56 532.99 C 248.46 539.63 253.22 544.73 256.91 550.02 C 263.58 558.82 270.81 567.91 273.07 578.98 C 274.33 588.48 269.03 597.92 261.52 603.48 C 253.81 608.76 243.98 610.70 234.80 609.19 C 230.76 608.45 226.55 608.76 222.65 607.33 C 212.82 604.43 203.43 600.31 194.02 596.30 C 194.59 587.41 197.70 578.86 197.85 569.93 C 206.85 576.34 216.36 582.88 227.60 584.36 C 232.09 585.14 238.32 584.87 240.30 579.93 C 241.00 576.68 240.50 573.20 238.60 570.44 C 232.98 561.77 227.06 553.29 221.42 544.64 C 218.21 539.30 215.27 533.37 215.44 526.99 C 215.41 515.65 223.59 505.07 234.30 501.63 Z" />
<path fill="#1a5088" opacity="1.00" d=" M 300.56 507.72 C 306.75 507.78 312.86 509.25 319.06 508.72 C 322.00 508.83 325.61 507.49 327.86 510.09 C 332.89 514.74 338.02 519.29 343.03 523.97 C 349.30 530.88 356.81 536.52 363.31 543.21 C 350.64 537.33 342.78 525.27 332.01 516.90 C 328.75 514.37 325.86 510.33 321.30 510.50 C 315.19 510.65 308.95 509.68 302.93 510.89 C 301.35 512.51 301.60 515.11 301.28 517.22 C 300.39 533.58 299.30 549.93 298.38 566.29 C 297.96 571.20 296.69 576.02 296.52 580.97 C 296.34 586.03 296.73 591.13 296.04 596.18 C 295.35 602.58 293.80 609.18 295.44 615.55 C 295.97 618.05 299.00 617.89 300.97 618.28 C 306.55 618.69 312.19 619.36 317.77 618.77 C 320.38 618.80 320.69 615.91 321.07 613.96 C 322.39 604.53 322.29 594.97 322.58 585.46 C 322.81 579.11 323.32 572.61 325.95 566.73 C 325.16 585.07 323.68 603.36 322.59 621.69 C 312.77 620.97 302.91 620.76 293.10 619.82 C 292.38 608.90 294.47 598.05 294.71 587.15 C 296.73 560.68 298.73 534.21 300.56 507.72 Z" />
<path fill="#1a5088" opacity="1.00" d=" M 397.58 565.17 C 402.25 568.75 403.89 574.60 406.50 579.61 C 409.21 584.83 412.03 590.00 414.87 595.15 C 416.26 597.24 417.78 600.53 420.84 599.66 C 428.68 598.35 435.35 593.31 443.29 592.18 C 435.15 596.97 426.24 600.30 417.34 603.37 C 411.04 590.50 403.71 578.14 397.58 565.17 Z" />
</g>
<g id="#0961b9ff">
<path fill="#0961b9" opacity="1.00" d=" M 367.97 31.98 C 370.91 29.98 373.63 27.36 377.16 26.45 C 381.00 26.01 383.58 29.70 385.60 32.43 C 390.53 40.48 395.48 48.53 400.42 56.59 C 404.26 62.72 407.32 69.36 411.94 74.98 C 415.60 79.39 418.17 84.59 419.59 90.13 C 403.31 98.35 386.93 106.40 370.79 114.90 C 366.68 117.01 362.89 119.82 358.49 121.30 C 356.27 122.13 354.11 120.77 352.23 119.74 C 340.44 112.15 328.39 104.96 316.52 97.50 C 309.33 93.18 302.00 89.05 295.22 84.09 C 300.83 75.84 310.31 71.94 317.91 65.93 C 322.83 62.04 328.06 58.57 333.51 55.47 C 338.90 52.40 343.55 48.28 348.42 44.48 C 354.53 39.69 361.79 36.67 367.97 31.98 Z" />
<path fill="#0961b9" opacity="1.00" d=" M 184.28 57.24 C 185.14 55.40 185.75 52.41 188.25 52.36 C 194.82 51.96 200.68 55.64 206.92 57.11 C 213.58 58.69 219.83 61.53 226.35 63.55 C 237.73 66.61 249.07 69.86 260.13 73.93 C 268.50 77.15 277.84 77.52 285.58 82.38 C 285.76 83.89 285.93 85.39 286.12 86.90 C 280.34 93.18 274.28 99.20 268.35 105.34 C 259.07 115.71 248.85 125.17 239.61 135.57 C 237.57 137.59 235.54 140.34 232.41 140.46 C 227.27 140.76 222.13 140.05 217.00 139.85 C 198.75 139.40 180.53 138.16 162.30 137.33 C 162.74 130.00 165.68 123.20 167.25 116.10 C 169.59 106.29 172.73 96.71 176.07 87.21 C 178.59 77.16 181.36 67.17 184.28 57.24 Z" />
<path fill="#0961b9" opacity="1.00" d=" M 126.90 149.98 C 136.92 146.88 146.57 141.97 157.23 141.50 C 155.68 164.43 153.30 187.29 151.63 210.21 C 151.29 213.70 151.16 217.79 148.17 220.19 C 143.01 224.63 136.56 227.16 130.98 231.00 C 114.83 241.84 98.34 252.14 81.75 262.28 C 77.87 256.46 75.49 249.83 74.16 243.00 C 72.41 233.98 68.56 225.57 66.43 216.66 C 64.37 208.32 61.23 200.30 59.02 192.00 C 57.61 186.53 55.06 181.17 55.34 175.42 C 57.60 173.30 60.75 172.65 63.59 171.65 C 69.84 169.76 75.63 166.57 82.01 165.06 C 89.97 163.26 97.05 158.89 105.01 157.08 C 112.49 155.30 119.56 152.22 126.90 149.98 Z" />
<path fill="#0961b9" opacity="1.00" d=" M 73.75 273.83 C 75.16 272.41 76.53 270.94 78.18 269.80 C 80.01 270.01 81.72 270.75 83.38 271.50 C 97.42 287.06 112.15 302.00 125.69 318.00 C 121.18 328.06 115.00 337.22 109.94 346.99 C 102.18 360.13 94.86 373.52 87.22 386.72 C 84.54 386.61 81.54 386.64 79.52 384.57 C 72.78 378.62 67.45 371.24 60.50 365.50 C 51.92 358.40 45.62 349.05 37.31 341.66 C 32.89 337.36 27.78 333.82 23.67 329.21 C 22.60 327.83 20.84 325.94 22.08 324.13 C 24.26 320.04 28.18 317.38 31.67 314.51 C 41.30 306.91 48.57 296.90 57.41 288.48 C 62.19 282.86 68.73 279.19 73.75 273.83 Z" />
<path fill="#0961b9" opacity="1.00" d=" M 388.64 498.32 C 392.50 496.97 396.07 494.86 400.06 493.90 C 402.34 493.23 403.85 495.41 404.85 497.09 C 410.96 508.03 414.13 520.28 419.65 531.50 C 422.75 537.71 424.99 544.38 428.92 550.15 C 428.87 549.64 428.76 548.62 428.71 548.11 C 433.67 557.84 436.93 568.32 441.98 578.01 C 444.31 582.13 445.06 586.86 446.56 591.30 C 445.47 591.60 444.37 591.89 443.29 592.18 C 435.35 593.31 428.68 598.35 420.84 599.66 C 417.78 600.53 416.26 597.24 414.87 595.15 C 412.03 590.00 409.21 584.83 406.50 579.61 C 403.89 574.60 402.25 568.75 397.58 565.17 C 396.62 564.34 395.59 563.60 394.56 562.87 C 387.58 577.09 380.50 591.26 374.35 605.87 C 369.85 601.56 364.40 598.41 360.05 593.94 C 352.24 587.09 344.97 579.62 336.71 573.29 C 333.41 570.43 330.32 567.31 326.75 564.77 C 326.55 565.26 326.15 566.24 325.95 566.73 C 323.32 572.61 322.81 579.11 322.58 585.46 C 322.29 594.97 322.39 604.53 321.07 613.96 C 320.69 615.91 320.38 618.80 317.77 618.77 C 312.19 619.36 306.55 618.69 300.97 618.28 C 299.00 617.89 295.97 618.05 295.44 615.55 C 293.80 609.18 295.35 602.58 296.04 596.18 C 296.73 591.13 296.34 586.03 296.52 580.97 C 296.69 576.02 297.96 571.20 298.38 566.29 C 299.30 549.93 300.39 533.58 301.28 517.22 C 301.60 515.11 301.35 512.51 302.93 510.89 C 308.95 509.68 315.19 510.65 321.30 510.50 C 325.86 510.33 328.75 514.37 332.01 516.90 C 342.78 525.27 350.64 537.33 363.31 543.21 C 364.12 542.47 364.94 541.74 365.71 540.96 C 371.12 536.14 371.73 528.54 374.24 522.16 C 376.71 515.91 378.59 509.43 381.22 503.25 C 382.37 500.14 385.94 499.50 388.64 498.32 Z" />
</g>
<g id="#4ba5fbff">
<path fill="#4ba5fb" opacity="1.00" d=" M 425.35 91.54 C 428.82 91.07 432.36 91.19 435.73 92.21 C 450.79 96.48 466.06 99.92 481.20 103.89 C 502.02 108.98 522.73 114.52 543.56 119.55 C 540.11 122.41 537.20 125.86 533.85 128.83 C 525.14 136.45 518.04 145.69 509.31 153.30 C 503.01 158.67 497.84 165.18 491.93 170.93 C 485.37 176.59 480.26 183.80 473.21 188.89 C 470.91 181.40 466.67 174.71 463.40 167.63 C 450.73 142.26 438.03 116.91 425.35 91.54 Z" />
<path fill="#4ba5fb" opacity="1.00" d=" M 85.27 397.71 C 85.93 397.85 87.25 398.13 87.91 398.27 C 96.34 401.38 104.70 404.67 113.17 407.66 C 128.56 413.21 143.67 419.56 159.21 424.65 C 154.82 427.33 150.93 430.72 146.78 433.72 C 125.18 449.40 104.13 465.80 82.60 481.57 C 78.41 484.67 74.44 488.10 69.97 490.81 C 70.64 485.58 71.16 480.33 72.12 475.15 C 76.70 449.37 80.66 423.48 85.27 397.71 Z" />
<path fill="#4ba5fb" opacity="1.00" d=" M 481.43 455.57 C 489.14 454.83 497.10 454.94 504.50 457.48 C 510.60 459.24 516.10 462.49 521.69 465.44 C 525.65 467.63 528.77 471.07 531.14 474.88 C 535.85 481.60 540.25 488.78 542.03 496.90 C 548.99 522.88 532.59 552.94 506.72 560.71 C 492.48 565.95 476.03 564.65 462.79 557.24 C 450.08 550.47 440.42 538.54 436.14 524.83 C 432.65 512.42 433.09 498.61 438.96 486.98 C 442.04 481.06 445.18 474.74 450.83 470.85 C 455.27 467.67 459.01 463.58 463.68 460.73 C 469.30 458.19 475.30 456.34 481.43 455.57 M 483.32 484.35 C 478.06 485.60 473.35 488.75 469.71 492.68 C 460.88 502.01 461.08 518.57 470.69 527.30 C 480.77 537.91 500.30 536.80 508.68 524.62 C 513.71 519.02 514.13 511.09 513.23 503.99 C 510.57 490.89 496.40 481.57 483.32 484.35 Z" />
</g>
</svg>
